<?xml version="1.0" encoding="UTF-8" standalone="no"?>
<!-- Created with Inkscape (http://www.inkscape.org/) -->

<svg
   width="630"
   height="128"
   viewBox="0 0 166.68751 33.866667"
   version="1.1"
   id="svg5"
   inkscape:version="1.1 (c68e22c387, 2021-05-23)"
   sodipodi:docname="logo-simplified.svg"
   xmlns:inkscape="http://www.inkscape.org/namespaces/inkscape"
   xmlns:sodipodi="http://sodipodi.sourceforge.net/DTD/sodipodi-0.dtd"
   xmlns="http://www.w3.org/2000/svg"
   xmlns:svg="http://www.w3.org/2000/svg"
   xmlns:rdf="http://www.w3.org/1999/02/22-rdf-syntax-ns#"
   xmlns:cc="http://creativecommons.org/ns#"
   xmlns:dc="http://purl.org/dc/elements/1.1/">
  <title
     id="title35632">Multitasker-Logo</title>
  <sodipodi:namedview
     id="namedview7"
     pagecolor="#ffffff"
     bordercolor="#999999"
     borderopacity="1"
     inkscape:pageshadow="0"
     inkscape:pageopacity="0"
     inkscape:pagecheckerboard="0"
     inkscape:document-units="px"
     showgrid="false"
     fit-margin-top="0"
     fit-margin-left="0"
     fit-margin-right="0"
     fit-margin-bottom="0"
     inkscape:zoom="1.0399442"
     inkscape:cx="-5.2887455"
     inkscape:cy="122.60274"
     inkscape:window-width="2560"
     inkscape:window-height="1417"
     inkscape:window-x="-8"
     inkscape:window-y="-8"
     inkscape:window-maximized="1"
     inkscape:current-layer="layer1" />
  <defs
     id="defs2" />
  <g
     inkscape:label="Layer 1"
     inkscape:groupmode="layer"
     id="layer1"
     transform="translate(-17.336709,-48.770247)">
    <path
       id="rect846"
       style="fill:none;stroke:#000000;stroke-width:2.11667;stroke-linejoin:round"
       d="M 18.649463,54.843179 H 42.306656 V 78.500367 H 18.649463 Z" />
    <g
       aria-label="M"
       id="text3108"
       style="font-size:16.9333px;line-height:1.25;stroke-width:0.264583"
       transform="translate(0.25442072,2.6714176)">
      <path
         d="m 36.785565,69.847191 h -3.158457 v -8.243408 l -2.282027,5.349533 h -2.191076 l -2.282027,-5.349533 v 8.243408 H 23.878885 V 57.535822 h 3.687623 l 2.769851,6.176355 2.761583,-6.176355 h 3.687623 z"
         style="font-weight:bold;-inkscape-font-specification:'sans-serif Bold'"
         id="path868" />
    </g>
    <g
       aria-label="ULTITASKER"
       id="text3108-9"
       style="font-size:16.9333px;line-height:1.25;letter-spacing:2.11667px;stroke-width:0.264583"
       transform="translate(0.25442072,2.6714176)">
      <path
         d="m 56.993495,65.813132 q 0,2.282027 -1.389059,3.497454 -1.38906,1.215428 -4.092766,1.215428 -2.703705,0 -4.092765,-1.215428 -1.380792,-1.215427 -1.380792,-3.489185 V 57.95833 h 3.19153 v 7.68117 q 0,1.281573 0.537434,1.909957 0.537434,0.628384 1.744593,0.628384 1.190623,0 1.736325,-0.603579 0.55397,-0.60358 0.55397,-1.934762 v -7.68117 h 3.19153 z"
         style="font-weight:bold;-inkscape-font-specification:'sans-serif Bold'"
         id="path847" />
      <path
         d="M 70.958514,70.269699 H 62.078453 V 57.95833 h 3.174994 v 9.930124 h 5.705067 z"
         style="font-weight:bold;-inkscape-font-specification:'sans-serif Bold'"
         id="path849" />
      <path
         d="M 84.617609,60.339575 H 80.77289 v 9.930124 H 77.597896 V 60.339575 H 73.753177 V 57.95833 h 10.864432 z"
         style="font-weight:bold;-inkscape-font-specification:'sans-serif Bold'"
         id="path851" />
      <path
         d="m 95.300148,70.269699 h -7.209881 v -2.182808 h 2.017444 V 60.141138 H 88.090267 V 57.95833 h 7.209881 v 2.182808 h -2.017444 v 7.945753 h 2.017444 z"
         style="font-weight:bold;-inkscape-font-specification:'sans-serif Bold'"
         id="path853" />
      <path
         d="m 109.63724,60.339575 h -3.84472 v 9.930124 h -3.175 V 60.339575 H 98.772804 V 57.95833 h 10.864436 z"
         style="font-weight:bold;-inkscape-font-specification:'sans-serif Bold'"
         id="path855" />
      <path
         d="m 125.04092,70.269699 h -3.28248 l -0.85162,-2.488732 h -4.56406 l -0.85162,2.488732 h -3.1998 l 4.54752,-12.311369 h 3.65455 z m -4.90305,-4.745954 -1.51308,-4.415226 -1.51308,4.415226 z"
         style="font-weight:bold;-inkscape-font-specification:'sans-serif Bold'"
         id="path857" />
      <path
         d="m 138.7827,66.400175 q 0,1.819007 -1.54615,2.960021 -1.53789,1.132745 -4.18372,1.132745 -1.52962,0 -2.67063,-0.264583 -1.13275,-0.272851 -2.12493,-0.686262 v -2.951752 h 0.34726 q 0.98392,0.785481 2.19935,1.207159 1.22369,0.421679 2.34817,0.421679 0.28939,0 0.76068,-0.04961 0.47128,-0.04961 0.76894,-0.165364 0.3638,-0.148828 0.59531,-0.37207 0.23978,-0.223242 0.23978,-0.661457 0,-0.405142 -0.34727,-0.69453 -0.33899,-0.297655 -1.00045,-0.454751 -0.69453,-0.165365 -1.47174,-0.305924 -0.76894,-0.148828 -1.44694,-0.37207 -1.55442,-0.504361 -2.24068,-1.364255 -0.678,-0.868162 -0.678,-2.149735 0,-1.719789 1.53789,-2.802925 1.54616,-1.091404 3.96874,-1.091404 1.21543,0 2.39778,0.239779 1.19063,0.231509 2.05879,0.587043 v 2.835997 h -0.339 q -0.74414,-0.595312 -1.82727,-0.992186 -1.07487,-0.405142 -2.19935,-0.405142 -0.39687,0 -0.79375,0.05788 -0.3886,0.04961 -0.7524,0.198437 -0.32246,0.124023 -0.55397,0.380338 -0.23151,0.248046 -0.23151,0.570507 0,0.487824 0.37207,0.752407 0.37207,0.256315 1.40559,0.471288 0.678,0.14056 1.29811,0.272851 0.62839,0.132292 1.34772,0.363802 1.41386,0.46302 2.08359,1.265036 0.67799,0.793749 0.67799,2.067053 z"
         style="font-weight:bold;-inkscape-font-specification:'sans-serif Bold'"
         id="path859" />
      <path
         d="m 154.56673,70.269699 h -3.89433 l -3.67935,-4.927855 -0.74414,0.901235 v 4.02662 h -3.175 V 57.95833 h 3.175 v 5.572776 l 4.39869,-5.572776 h 3.67935 l -4.8121,5.696799 z"
         style="font-weight:bold;-inkscape-font-specification:'sans-serif Bold'"
         id="path861" />
      <path
         d="m 167.15096,70.269699 h -8.90487 V 57.95833 h 8.90487 v 2.381245 h -5.74641 v 2.124931 h 5.333 v 2.381245 h -5.333 v 3.042703 h 5.74641 z"
         style="font-weight:bold;-inkscape-font-specification:'sans-serif Bold'"
         id="path863" />
      <path
         d="m 178.83395,61.728635 q 0,-0.46302 -0.19017,-0.793748 -0.19017,-0.330729 -0.65319,-0.520898 -0.32246,-0.132291 -0.75241,-0.157096 -0.42994,-0.03307 -1.00045,-0.03307 h -1.14928 v 3.315554 h 0.97565 q 0.76067,0 1.2733,-0.07441 0.51263,-0.07441 0.8599,-0.338997 0.33073,-0.256314 0.47955,-0.562238 0.1571,-0.314192 0.1571,-0.83509 z m 4.95266,8.541064 h -3.87779 l -3.3569,-4.514444 h -1.46347 v 4.514444 h -3.15846 V 57.95833 h 5.32473 q 1.09141,0 1.87689,0.124023 0.78548,0.124023 1.47174,0.537434 0.69453,0.413411 1.09967,1.074868 0.41341,0.653189 0.41341,1.645374 0,1.364255 -0.63665,2.224149 -0.62839,0.859895 -1.80247,1.430401 z"
         style="font-weight:bold;-inkscape-font-specification:'sans-serif Bold'"
         id="path865" />
    </g>
    <path
       style="fill:none;stroke:#000000;stroke-width:0.529167;stroke-linecap:round;stroke-linejoin:round;stroke-miterlimit:4;stroke-dasharray:none;stroke-opacity:1"
       d="m 23.596786,51.802137 v 5.992129 -0.04498"
       id="path7033"
       sodipodi:nodetypes="ccc" />
    <path
       style="fill:none;stroke:#000000;stroke-width:0.529167;stroke-linecap:round;stroke-linejoin:round;stroke-miterlimit:4;stroke-dasharray:none;stroke-opacity:1"
       d="m 22.070262,51.802137 v 5.992129 -0.04498"
       id="path7033-4-6"
       sodipodi:nodetypes="ccc" />
    <path
       style="fill:none;stroke:#000000;stroke-width:0.529167;stroke-linecap:round;stroke-linejoin:round;stroke-miterlimit:4;stroke-dasharray:none;stroke-opacity:1"
       d="m 36.572979,51.706248 v 5.992129 -0.04498"
       id="path7033-4"
       sodipodi:nodetypes="ccc" />
    <path
       style="fill:none;stroke:#000000;stroke-width:0.529167;stroke-linecap:round;stroke-linejoin:round;stroke-miterlimit:4;stroke-dasharray:none;stroke-opacity:1"
       d="m 38.071998,51.691323 v 5.992129 -0.04498"
       id="path7033-4-7"
       sodipodi:nodetypes="ccc" />
  </g>
  <metadata
     id="metadata35630">
    <rdf:RDF>
      <cc:Work
         rdf:about="">
        <dc:title>Multitasker-Logo</dc:title>
      </cc:Work>
    </rdf:RDF>
  </metadata>
</svg>
